<svg viewBox="0 0 200 240" fill="none" xmlns="http://www.w3.org/2000/svg" class="ld-official-svg" aria-label="NavRoop Official Logo">
  <defs>
    <linearGradient id="goldGrad" x1="0%" y1="0%" x2="100%" y2="100%">
      <stop offset="0%" stop-color="#f3e5ab" />
      <stop offset="50%" stop-color="#c9993d" />
      <stop offset="100%" stop-color="#a67c1e" />
    </linearGradient>
  </defs>

  <!-- Outer Architectural Crown / Shield Motif -->
  <path class="ld-path ld-p1" d="M 100 15 C 62 15 22 45 30 105 C 38 155 82 188 100 205 C 118 188 162 155 170 105 C 178 45 138 15 100 15 Z" stroke="url(#goldGrad)" stroke-linecap="round" stroke-linejoin="round" />

  <!-- Inner Architectural Accent Curves -->
  <path class="ld-path ld-p2" d="M 46 92 C 28 68 18 95 42 122 C 58 140 78 138 100 205" stroke="url(#goldGrad)" stroke-linecap="round" />
  <path class="ld-path ld-p3" d="M 154 92 C 172 68 182 95 158 122 C 142 140 122 138 100 205" stroke="url(#goldGrad)" stroke-linecap="round" />

  <!-- Center Crest Motif -->
  <path class="ld-path ld-p4" d="M 100 32 L 112 62 L 100 92 L 88 62 Z" stroke="url(#goldGrad)" stroke-linecap="round" stroke-linejoin="round" />

  <!-- Horizontal Emblem Divider -->
  <path class="ld-path ld-p5" d="M 65 115 Q 100 125 135 115" stroke="url(#goldGrad)" stroke-linecap="round" />
</svg>